<svg width="74px" height="74px" viewBox="0 0 74 74" version="1.1" xmlns="http://www.w3.org/2000/svg"
  xmlns:xlink="http://www.w3.org/1999/xlink">
  <title>WO-Icon-circle-white</title>
  <g id="Website" stroke="none" stroke-width="1" fill="none" fill-rule="evenodd">
    <g id="Homepage-redo-" transform="translate(-681.000000, -194.000000)" fill="#FF855D">
      <g id="WorkshopOrange_White_Logo-Copy" transform="translate(681.000000, 194.000000)">
        <path
          d="M12.6633417,32.6959799 C12.797462,32.6590584 12.9381304,32.7281576 12.9895265,32.8562085 C13.0409226,32.9842595 12.9865102,33.1300624 12.8633536,33.1942997 C9.87351984,34.7745881 7.43544318,37.5767841 5.69395985,40.8499948 C3.36623461,45.2324792 3.99730679,48.8708969 4.89046359,49.7549027 C5.83534761,50.6866926 7.47337648,50.3897486 8.48378166,50.0791519 L8.87346011,49.9119076 C9.38519842,49.6854911 9.91906082,49.5116477 10.4666587,49.3931088 C10.6304567,49.3736464 10.7928559,49.3440073 10.9528947,49.3043669 C11.1632521,49.1951461 11.2977428,49.0142492 11.5218942,48.9118547 C12.0046816,48.6763473 12.3943601,48.3316192 12.9978444,48.2462905 C13.2520953,48.2196216 13.4785342,48.0752738 13.6082257,47.8571914 C13.7565104,47.5909657 14.1289464,47.5158764 14.4082735,47.3656978 C14.87037,47.1131247 15.3393636,46.8707911 15.7876662,46.5977391 C16.4601202,46.1779217 17.1049863,45.7342122 17.7601978,45.3007422 C17.8256703,45.2427652 17.8878387,45.1812337 17.9464158,45.1164321 C18.0153855,45.0618217 18.0912521,44.9799061 18.1705671,44.9764929 C18.3533367,44.9764929 18.3602336,44.9116431 18.4154094,44.7853565 C18.4705851,44.65907 18.7257727,44.5566755 18.8981968,44.4440416 C18.9982028,44.3826049 19.1809723,44.3791917 19.1464875,44.2221868 C19.1464875,44.1982948 19.249942,44.1607501 19.3051177,44.1266186 C19.3602934,44.0924871 19.4844387,44.0412899 19.4947842,43.9900926 C19.5499599,43.7272801 19.8396324,43.6487777 20.087923,43.54297 C20.3362137,43.4371624 20.5396742,43.4030309 20.7224437,43.2938101 C21.0133612,43.1034126 21.2942076,42.8983535 21.5638733,42.6794431 C22.1328728,42.2357336 22.7018723,41.7988504 23.2467324,41.3414884 C23.5295079,41.105981 23.7398653,40.8226896 24.0122954,40.5837691 C24.2847254,40.3448486 24.6330221,40.1059281 24.9261431,39.853355 C25.4089305,39.4335376 25.8710271,39.0034807 26.3434691,38.5802502 C26.8159111,38.1570196 27.2021411,37.825944 27.6263043,37.4470844 C27.9228738,37.1740324 28.2022008,36.890741 28.5056672,36.6245153 C28.5976492,36.5525614 28.7094194,36.5097388 28.826376,36.5016419 C29.0401819,36.5016419 29.1712242,36.4094869 29.1712242,36.2832003 C29.1712242,35.9896694 29.4367573,35.8087725 29.6367693,35.6005704 C29.8367812,35.3923682 30.1712839,35.1636872 30.4195746,34.9179404 C30.6678653,34.6721936 30.8678773,34.4366863 31.109271,34.2080052 C31.5368828,33.8052536 31.9644945,33.4025019 32.4162456,33.0202291 C32.8679967,32.6379563 33.3059539,32.3034676 33.771499,31.9621526 C34.0266866,31.7710163 34.4129166,31.6413166 34.5749953,31.4194618 C34.7611265,31.1773189 34.9831914,30.9644335 35.2336553,30.7880291 C35.4233218,30.64809 35.6129883,30.5081508 35.7992063,30.3647985 L36.6992601,29.6821686 C36.7406418,29.6514502 36.799266,29.6036661 36.8440963,29.6070793 C37.2165323,29.6343845 37.2579141,29.3852245 37.4130958,29.2316328 C37.4544776,29.1872618 37.4751685,29.1258251 37.5303442,29.0985199 C37.844156,28.9381019 38.1924527,28.8049891 38.4786767,28.620679 C38.7655104,28.4190177 39.0396025,28.2001669 39.2994154,27.9653542 C39.3442456,27.9278096 39.3718335,27.8766123 39.4201122,27.8424808 C39.6408151,27.7025417 39.8615179,27.5626025 40.1098086,27.4294897 C40.5615597,27.1735034 41.0133108,26.9106909 41.4892013,26.6717704 C41.7714876,26.5259091 42.0656401,26.403745 42.3685642,26.3065634 C42.641264,26.2290484 42.9189172,26.1697537 43.1996483,26.1290796 C43.4962178,26.0778823 43.7996842,26.0369245 44.0997021,25.9891405 C44.1016413,25.9630082 44.1016413,25.9367703 44.0997021,25.910638 L44.5721441,26.2007557 L44.1583263,26.3645869 C44.2514353,26.5420707 44.4204109,26.5557233 44.6514592,26.5181787 C44.811929,26.5011597 44.9737768,26.5011597 45.1342466,26.5181787 C45.1333807,26.620986 45.1182972,26.7231918 45.0894164,26.821949 C45.0032043,27.0130854 44.8652651,27.1905692 44.7893985,27.3817056 C44.7336661,27.5692618 44.6876266,27.7595072 44.6514592,27.9517016 C44.6204228,28.074575 44.5583502,28.1906221 44.5307623,28.2930166 C44.4376533,28.712834 44.3583382,29.1292383 44.2652292,29.5456426 C44.2584472,29.6043294 44.2271908,29.6575395 44.1790172,29.692408 C43.7789933,29.9074365 43.8134781,30.2726435 43.6169146,30.5559349 C43.5965862,30.590784 43.5965862,30.6337198 43.6169146,30.6685689 C43.7893387,30.8972499 43.6617449,31.0781468 43.4582845,31.2624569 C43.4033173,31.330172 43.3925831,31.4231336 43.4306966,31.5013774 C43.6203631,31.8699976 43.2996543,32.1225707 42.9927394,32.3205334 C42.5931728,32.5549508 42.2267449,32.8407285 41.9030192,33.1704077 C41.8330367,33.2434433 41.8127951,33.3502926 41.8512919,33.4434597 C42.0409584,33.6926196 41.8512919,33.9383664 41.7650799,34.1499817 C41.5793522,34.4815766 41.3635058,34.7957456 41.1202138,35.0885979 C41.1202138,35.0885979 41.0891774,35.1159031 41.0891774,35.1295557 C41.0891774,35.2694948 41.0891774,35.409434 41.0891774,35.5493731 L41.5202377,35.3343447 L41.644383,35.2831474 C41.597198,35.3895677 41.541861,35.4922615 41.4788559,35.5903309 C41.3167772,35.7985331 41.1340077,35.9999089 40.9719291,36.2115242 C40.8549019,36.3687927 40.7554633,36.5381662 40.6753596,36.7166704 C40.6236324,36.8258911 40.8064019,36.9112199 40.9581351,36.8531963 C41.0407999,36.8066082 41.1287825,36.7699425 41.2202198,36.7439756 C41.1576705,36.8124177 41.0989582,36.8842015 41.0443472,36.959004 C40.95772,37.0626172 40.8857874,37.1774488 40.8305413,37.300319 C40.7719171,37.505108 40.7098444,37.6860049 40.3236145,37.6689392 C40.4497744,37.9017177 40.3870042,38.1906808 40.1753298,38.3515691 C39.9556256,38.5300257 39.725314,38.6952908 39.4856334,38.8464758 C39.5114717,38.9238794 39.527684,39.0041109 39.5339121,39.0853963 C39.5269359,39.1467414 39.4893935,39.2005562 39.4339062,39.2287486 C39.0580216,39.3106642 39.1373367,39.5256927 39.1304398,39.7134159 L39.94773,39.3140774 C39.9291504,39.2239889 39.9291504,39.1311139 39.94773,39.0410254 C39.94773,38.9727624 40.0718753,38.8976731 40.1649843,38.8601284 C40.3753417,38.7713866 40.599493,38.7031236 40.8891655,38.6041422 C40.7707635,38.7014752 40.6611477,38.8088259 40.5615597,38.9249783 C40.3236145,39.2662933 40.1029116,39.6076083 39.8718634,39.9694021 C39.7063362,40.2253884 39.5649485,40.4916141 39.375282,40.7373609 C39.2614821,40.8841263 39.1097489,41.0069997 39.1373367,41.1913098 C39.1377544,41.2325714 39.1230532,41.2725854 39.0959549,41.3039437 C38.889046,41.583822 38.6683432,41.8602871 38.4752282,42.1469917 C38.2821132,42.4336963 38.0958952,42.7750113 37.8786409,43.0821948 C37.7538197,43.2237203 37.6164851,43.3539366 37.4682715,43.4712939 C37.4185422,43.5122449 37.378515,43.563514 37.3510231,43.6214725 C37.2998961,43.8470978 37.2113342,44.0627742 37.0889385,44.2597315 C36.896319,44.405638 36.6867754,44.5282427 36.4647633,44.6249385 C36.2992362,44.7307461 35.9750789,44.7751171 36.1199151,45.024277 C36.1578484,45.0993663 36.2750968,45.2222397 36.3199271,45.2120003 C36.465499,45.1768299 36.6041701,45.1180084 36.7302964,45.0379296 C36.7785751,45.0106244 36.7854721,44.9423614 36.8234054,44.8706853 C36.8935363,44.9030094 36.9434122,44.9670609 36.9571305,45.0424172 C36.9708487,45.1177735 36.9466967,45.1950266 36.892375,45.2495449 C36.8027145,45.3860709 36.7406418,45.5328364 36.6613268,45.6727755 C36.6162501,45.7593747 36.5631454,45.8416436 36.5026966,45.9185223 C36.4379653,45.9915427 36.4077377,46.0884036 36.4195873,46.1848357 C36.4314369,46.2812678 36.4842411,46.3681337 36.5647693,46.4236685 C36.7544358,46.5567813 36.9096175,46.4236685 37.0544537,46.3554055 C37.3613686,46.2359452 37.6855259,46.1369639 37.9820953,46.0140905 C38.1614164,45.935588 38.2993556,45.8058883 38.4648828,45.7137333 C38.7890401,45.5328364 39.1200943,45.3724183 39.4477001,45.1915214 C39.502667,45.1724486 39.5557633,45.1484573 39.6063303,45.1198452 C40.2960266,44.6010465 40.9477897,44.0685951 41.6374861,43.5600358 C41.8168071,43.4269229 41.937504,43.1845893 42.3271824,43.2972232 C42.4616732,43.3347679 42.7478972,43.0924342 42.9582546,42.972974 C43.0134303,42.9422556 43.0272242,42.8739926 43.0823999,42.8398611 C43.361727,42.6555511 43.6582964,42.4985462 43.934175,42.3005835 C44.0792481,42.2101879 44.2065951,42.0945529 44.3100595,41.9592685 C44.5755926,41.5565168 45.0756225,41.3278358 45.4894403,41.0343049 C45.723937,40.8704737 45.9411914,40.6929899 46.1791366,40.5189193 C46.2584517,40.4574826 46.3481123,40.4062853 46.4722576,40.3243697 C46.2239669,40.8056238 46.2239669,40.8056238 45.9549853,40.8568211 L46.0687852,41.0650232 C45.544616,41.1332862 45.4032282,41.4541223 45.2170102,41.7476532 C45.1615529,41.8256918 45.0979834,41.8977617 45.0273437,41.9626816 C44.7652591,42.2152547 44.499726,42.4644147 44.213502,42.7340535 C44.213502,42.6555511 44.213502,42.607767 44.213502,42.5360908 C44.1307384,42.5599829 44.0307325,42.5668092 44.0100416,42.6009407 C43.8134781,42.9422556 43.3203452,43.0446501 43.0961939,43.3962046 C42.8231944,43.8843933 42.4038995,44.2767342 41.8961222,44.5191309 C41.6995587,44.6044596 41.751286,44.7375724 41.8581889,44.8809247 L42.3202855,44.6761357 C42.3202855,44.7239198 42.3202855,44.7580513 42.3202855,44.7614645 C41.9383548,44.9275065 41.6400491,45.2387486 41.4926498,45.6249914 C41.3995408,45.8024752 41.5340316,45.8843908 41.7754253,45.8263672 L42.3996005,45.6796018 C42.5483841,45.3764773 42.916109,45.2485592 43.2237877,45.3928972 C43.3686239,45.4406813 43.3893148,45.4952917 43.2651695,45.6045125 C43.0824384,45.7594089 42.9171061,45.9333462 42.7720366,46.1233113 C42.7341033,46.1779217 42.8203153,46.2837293 42.8479032,46.3656449 C42.9735361,46.3322133 43.0958756,46.2876628 43.2134423,46.2325321 C43.2893089,46.1881611 43.3237937,46.0994192 43.4169027,46.0379825 C43.4731263,46.2736973 43.6794917,46.4446012 43.9238295,46.4578 C44.1354209,46.4705673 44.3396002,46.3784769 44.4686896,46.2120532 C44.6100774,46.0618746 44.8894044,45.9765458 44.9963074,45.8229541 C45.1032103,45.6693623 45.5135796,45.5430758 45.5032342,45.2256529 C45.5032342,45.0481691 45.7756643,44.8604458 45.8756702,44.6624832 C45.9756762,44.4645205 46.0584398,44.2563183 46.4239789,44.2256 C46.5032939,44.2256 46.5722636,44.0959003 46.6791665,44.0003321 C46.8274512,44.1948816 46.9964268,44.4167364 47.3688629,44.2358394 L47.3688629,44.2358394 L47.3688629,44.2358394 L47.3688629,44.2358394 C47.3378265,43.9866795 47.53439,43.8057825 47.8344079,43.8057825 C47.8344079,44.0788345 47.6861232,44.2017079 47.3688629,44.2358394 L47.3688629,44.2358394 L47.3688629,44.2358394 C47.3339263,44.3025092 47.3139302,44.3758532 47.3102387,44.4508679 C47.3102387,44.498652 47.4309355,44.5839807 47.4723173,44.5737413 C47.6215769,44.5387347 47.7670844,44.4895862 47.906826,44.4269758 C47.890159,44.3792069 47.868184,44.3334177 47.8413049,44.2904498 L48.7896374,43.7511721 C48.9413706,43.6590171 48.951716,43.5702752 48.8344677,43.3791388 C48.9689584,43.2767443 49.0862068,43.1606972 49.3207036,43.2391997 C49.4160941,43.2452874 49.5097582,43.2119138 49.5793397,43.1470446 C49.7448669,42.9388425 49.8793577,42.7204009 50.0207454,42.5053725 C50.0207454,42.5053725 50.0000545,42.4678278 49.9759151,42.4302832 C49.4586429,42.7715981 48.7861889,42.9115373 48.4378922,43.4030309 L48.3240923,43.314289 C48.4069141,43.1948904 48.5054946,43.086989 48.6172133,42.9934529 C48.8310192,42.8501006 49.1551765,42.7750113 49.3069097,42.6111801 C49.5827882,42.3005835 50.0690242,42.0821419 50.1000605,41.652085 C50.1000605,41.4609486 50.2311028,41.3312489 50.5380177,41.242507 C50.7773215,41.1396368 50.9717294,40.9556919 51.0863263,40.7237083 C51.1932292,40.5189193 51.2380595,40.307304 51.5173865,40.1810174 C51.5898046,40.1468859 51.6277379,40.0717966 51.6863621,40.0205994 C51.7449863,39.9694021 51.8967195,39.853355 51.9863801,39.7612 C52.0312587,39.7023085 52.0661965,39.6366067 52.0898345,39.5666505 C52.3346767,39.6110214 52.5450341,39.5939557 52.4967554,39.3072511 C52.4967554,39.2424012 52.558828,39.1638988 52.6071068,39.0956358 C52.751943,38.8771942 52.9864398,38.6928841 53.0312701,38.440311 C53.0312701,38.4061795 53.1519669,38.3788743 53.2174881,38.3515691 L53.9727056,38.0409725 C53.8244209,37.8976202 53.703724,37.7747468 53.5864756,37.6586997 C53.617512,37.6313945 53.7140695,37.573371 53.7451058,37.5016948 C53.8761481,37.187685 54.2416872,37.0067881 54.4899779,36.7610413 C54.5382566,36.7098441 54.648608,36.6654731 54.648608,36.6245153 C54.6244687,36.2285899 55.2141591,36.1125428 55.3383044,35.7780542 C55.4279649,35.5357205 55.7417768,35.5288942 56.0280008,35.5323074 C56.0837055,35.435345 56.1332303,35.3350302 56.1762855,35.2319502 C56.1762855,35.1807529 56.1969764,35.092011 56.1555946,35.0715321 C55.9210978,34.9588982 56.0417947,34.8496774 56.1555946,34.7302172 C56.2019365,34.6838377 56.2393335,34.6294737 56.265946,34.5697991 C56.4142307,34.1943526 56.5625155,34.0851318 57.0694423,34.0032162 C57.0842297,33.9070123 57.1073037,33.8122364 57.1384119,33.7199248 C57.1625513,33.6619013 57.2280725,33.5731594 57.2832482,33.5663331 C57.5556782,33.5390279 57.5556782,33.3342389 57.6936175,33.2250181 C57.7143084,33.2250181 57.6487872,33.108971 57.59706,33.0680132 C57.5462251,33.0381577 57.4858735,33.0284053 57.4280844,33.040708 C57.1293131,33.1875878 56.7762174,33.1773467 56.4866489,33.0134028 C56.459061,33.0134028 56.3142248,33.0611869 56.2418066,33.1055578 C56.0242139,33.2663906 55.7935252,33.4090938 55.5521103,33.5322016 C55.4452073,33.5765725 55.2314015,33.4844175 55.0727713,33.4400465 C54.9693168,33.4127413 54.8279291,33.3035205 54.7865473,33.3274126 C54.642041,33.4136242 54.5068437,33.5142692 54.3830749,33.6277698 C54.3589356,33.6482487 54.3520386,33.678967 54.3244507,33.723338 C54.1037479,33.6482487 53.9796026,33.5629199 54.18996,33.382023 C54.2175478,33.3581309 54.2520326,33.3205863 54.2416872,33.3001074 C54.1037479,33.0168159 54.4141113,33.1021447 54.5865354,33.0611869 C54.5865354,32.9349003 54.7624079,32.812027 54.5658445,32.6720878 C54.5141172,32.6379563 54.5658445,32.5048435 54.5899838,32.4229279 C54.6830929,32.1942468 54.9072442,31.9860447 54.8003412,31.719819 C54.7796503,31.6754481 54.9037957,31.5525747 54.9934562,31.5252695 C55.1607088,31.4940167 55.3014709,31.3828164 55.3693407,31.2283254 C55.4348619,31.0713205 55.6348738,30.9382077 55.7900555,30.8050949 C55.9452372,30.671982 56.0452432,30.6173716 56.2142188,30.4944982 C56.2142188,30.4944982 56.2142188,30.4194089 56.2142188,30.3511459 L56.2797399,30.3921037 C56.4383701,30.2692303 56.6038972,30.1497701 56.7590789,30.0200704 C56.9142606,29.8903707 57.0487514,29.7572579 57.1935876,29.624145 C57.2280725,29.5934267 57.2832482,29.5627083 57.2832482,29.53199 C57.317733,29.1531303 57.7522417,29.0370832 58.0729505,28.84936 C58.2158661,28.7656056 58.3519237,28.6708846 58.4798714,28.5660686 C58.8661013,28.2247536 59.2557798,27.8834386 59.6144219,27.5421236 C59.8627126,27.2929637 60.0213427,26.9857802 60.3041183,26.753686 C60.5213726,26.5693759 60.6765543,26.3065634 61.0593358,26.2485398 C61.1300235,26.2249693 61.1947247,26.1865464 61.2490023,26.1359059 C61.8023049,25.732606 62.4921724,25.5576234 63.1732551,25.6478255 C63.4397202,25.6842647 63.70791,25.7070494 63.9767514,25.7160885 C64.1537836,25.7092425 64.3290125,25.6782312 64.4974722,25.6239334 C64.9575654,25.47767 65.4613628,25.6205223 65.7734104,25.9857273 C65.8975558,26.1017744 65.9423861,26.2690187 66.0734284,26.3816527 C66.2044707,26.4942866 66.4769007,26.6308126 66.6527733,26.7741649 C66.7320884,26.8424279 66.7389854,26.958475 66.7803671,27.05063 C66.8217489,27.1427851 66.807955,27.1939823 66.8596822,27.2144612 C67.1838395,27.3441609 67.101076,27.6103866 67.2045304,27.8083493 C67.2045304,27.8288282 67.2045304,27.8595466 67.2252213,27.8766123 C67.5114387,28.1879034 67.8292186,28.4692595 68.1735538,28.7162472 C68.5834043,28.9622978 69.034083,29.1344821 69.5046678,29.2248065 C70.0472161,29.2865009 70.5942408,29.3002077 71.1392482,29.2657643 C71.5668599,29.2657643 71.9944717,29.2248065 72.4255319,29.2009144 C68.5719634,9.81546554 49.7184472,-2.92551529 30.0735456,0.57994843 C10.428644,4.08541215 -2.74228692,22.5408801 0.486752278,42.0377709 C3.29036801,36.3719422 8.79069655,33.7028591 12.6633417,32.6959799 Z M42.4064975,44.6420043 L42.30994,44.5771544 L42.9341152,44.0583556 L43.0065333,44.1095529 L42.4064975,44.6420043 Z M44.01349,44.727333 L43.7858902,44.9491877 C43.7209186,44.930348 43.6584153,44.903999 43.5996722,44.8706853 C43.4341451,44.7341593 43.361727,44.7990091 43.2755149,44.9389483 C43.194513,45.0432625 43.1019784,45.1382835 42.9996364,45.2222397 L42.875491,45.1744556 C42.9285006,45.0334923 42.9895212,44.8956085 43.0582606,44.7614645 C43.0892969,44.7102672 43.1996483,44.6897883 43.2651695,44.6454174 C43.3945736,44.5869602 43.5115934,44.5047275 43.6100177,44.4030838 C43.7686478,44.1470975 43.7514054,44.1402712 44.0376294,44.3655391 L43.9134841,44.4576942 C43.8721023,44.4918257 43.8238235,44.522544 43.7617509,44.566915 L44.01349,44.727333 Z M53.324391,37.3651688 L53.4347424,37.4129529 L53.1347245,37.7542679 L53.0036822,37.6860049 L53.324391,37.3651688 Z M48.5275528,38.5870765 L48.8275707,38.4710294 L48.8620555,38.4949214 L48.2516742,39.0649174 L48.5275528,38.5870765 Z M47.5240446,39.5393453 C47.6298209,39.4926714 47.7394182,39.4549909 47.8516503,39.4267113 L47.9413109,39.464256 C47.8969402,39.5201035 47.8460033,39.5705185 47.7895777,39.6144346 C47.684513,39.6700484 47.5749283,39.7168583 47.4619719,39.7543737 C47.4619719,39.7543737 47.3964507,39.7031765 47.4033477,39.6895239 C47.4252631,39.622826 47.4674066,39.5644297 47.5240446,39.5222795 L47.5240446,39.5393453 Z"
          id="Shape"></path>
        <path
          d="M73.2029298,33.4049217 C73.1157321,33.5140711 72.8297236,33.561824 72.6204491,33.5959332 C72.3670422,33.6303627 72.140296,33.767867 71.9961135,33.9745453 C71.8086607,34.1833843 71.5679639,34.3399146 71.2985318,34.4281975 C71.1834308,34.4895941 71.0718178,34.5578125 70.949741,34.62262 C70.8276642,34.6874274 70.6672204,34.7999878 70.5207283,34.8852607 C70.2870384,35.0251084 70.0568365,35.171778 69.8231466,35.2945711 C69.4952743,35.4908471 69.1438089,35.6466611 68.7767741,35.7584561 C68.3923255,35.8257414 67.9999553,35.8383785 67.6118127,35.7959762 C66.9220159,35.7217745 66.2804422,35.4141011 65.7981004,34.9261918 C65.6131222,34.8063393 65.3707351,34.8145603 65.1946923,34.9466573 C64.9505387,35.1785998 64.6924335,35.4003096 64.4517678,35.6288412 C64.3227152,35.7516343 64.2215658,35.8846601 64.102977,36.0074532 C63.9843881,36.1302463 63.8832387,36.1950538 63.7890652,36.2973814 C63.5292625,36.5050536 63.3044554,36.751372 63.1228747,37.0273181 C63.0600924,37.1637549 62.8577937,37.2626716 62.7287411,37.3888756 C62.5996885,37.5150796 62.4810996,37.6481055 62.3555349,37.7777204 C62.2892646,37.8459388 62.2125306,37.9073353 62.1462604,37.9721428 C61.968218,38.1313171 61.8015686,38.3022656 61.6474895,38.4837807 C61.2986987,38.9681313 60.7441212,39.3228669 60.3883546,39.7901629 C60.3185964,39.8822577 60.1337373,39.9265996 59.990733,39.9982289 L60.1581526,40.1721858 C59.9279507,40.4075393 59.7012367,40.6531255 59.460571,40.8816571 C59.3466486,40.9539279 59.2235206,41.0112661 59.0943406,41.052203 C58.8083321,41.1920507 58.3967589,41.2466254 58.3130491,41.5399645 C58.2293393,41.8810565 57.8596211,42.0959444 57.6642982,42.4029271 C57.5771791,42.4080481 57.4898242,42.4080481 57.4027051,42.4029271 C57.1550636,42.3790507 57.1132087,42.4677346 57.0155472,42.6348696 C56.8132486,42.9759616 56.7016355,43.3920937 56.1958888,43.6138035 C56.1365943,43.6410909 56.1017153,43.6956656 56.0459087,43.7297748 C55.8847795,43.8084376 55.7297369,43.8984978 55.5820169,43.9992374 C55.4646378,44.1104503 55.3647318,44.238036 55.2855447,44.3778495 C55.2053228,44.4972316 55.1425405,44.6268466 55.0727823,44.7496397 L55.0727823,44.7496397 L55.0727823,44.7496397 L55.0727823,44.7496397 C54.8739715,44.9304184 54.6821366,45.114608 54.4798379,45.2953868 C54.2775392,45.4761655 54.0054824,45.6194241 53.9078209,45.8172574 C53.8243243,46.0485406 53.6039467,46.2057704 53.3532435,46.2129241 C53.3044128,46.2129241 53.2346546,46.3084298 53.2241909,46.3630045 C53.1927997,46.5437833 53.0044527,46.598358 52.8265694,46.6529327 C52.3495544,46.7475731 51.9298089,47.0220436 51.6581201,47.4169786 C51.5272468,47.5917445 51.3709657,47.7468742 51.1942283,47.8774528 C50.8872923,48.1537372 50.5838443,48.4300217 50.252493,48.6926625 C50.1101898,48.7704779 49.9621199,48.837748 49.8095287,48.8939067 C49.4779191,49.068382 49.1565312,49.26083 48.846866,49.4703521 C48.7457166,49.5453924 48.7666441,49.7125274 48.7213013,49.8762515 C48.7596682,49.8762515 48.7213013,49.8762515 48.6864222,49.8762515 C48.3381904,49.8381919 48.0012825,50.0110293 47.8353725,50.3128492 C47.6143219,50.5107626 47.3667288,50.6783014 47.0994239,50.8108435 C47.0065318,50.8567056 46.9207974,50.9152801 46.8448066,50.9848003 C46.7681458,51.0917914 46.7027075,51.2060662 46.6494837,51.3258923 C47.0540811,51.6260532 47.3470654,51.6158204 47.8737395,51.3600015 C48.1085402,51.2890551 48.321799,51.1625183 48.4945872,50.9916222 C48.6429586,50.7746418 48.7384206,50.5272514 48.7736199,50.2685073 C48.8050111,50.1081941 48.8677934,50.0399757 49.0596284,50.026332 C49.3639738,50.035123 49.6499351,49.8842425 49.8095287,49.6306653 C49.8537747,49.5721863 49.9205772,49.5339756 49.9943878,49.5249268 C50.3657269,49.5927779 50.7496321,49.5273802 51.0756394,49.3407372 C51.4012606,49.2156544 51.7389799,49.1230889 52.0836449,49.0644527 C52.3522138,48.9894125 52.7044926,48.8597976 52.6521739,48.542582 C52.6482387,48.5028459 52.6637609,48.463632 52.6940288,48.4368435 C53.1335053,48.0957516 53.4160259,47.5977574 54.2147569,47.6216338 L54.1484866,47.358993 L54.5391323,47.3794585 C54.2622079,47.643939 54.0165162,47.9379819 53.8066716,48.2560648 C53.7419276,48.4383905 53.6198332,48.5959977 53.4578808,48.7063062 C53.3741713,48.7419807 53.2879061,48.771621 53.1997755,48.7949901 C53.1224506,48.8240166 53.0477755,48.8593889 52.9765494,48.9007286 C52.8656735,48.9576241 52.7673111,49.0352724 52.687053,49.1292602 C52.6304345,49.233808 52.610811,49.3537478 52.6312465,49.4703521 C52.6591498,49.6715964 52.57544,49.770513 52.3312864,49.7398148 C52.0871328,49.7091165 52.0138867,49.8012113 51.9824955,49.9444699 C51.855464,50.2098001 51.5844741,50.3807305 51.2849139,50.3844785 C51.0826152,50.3844785 51.0058812,50.4629297 50.9989054,50.6027774 C50.9829469,50.8489989 50.8094191,51.0583838 50.5664048,51.124648 C50.2873721,51.2372084 50.025779,51.3736452 49.718843,51.5134929 C49.718843,51.5407802 49.718843,51.6055877 49.718843,51.6976825 C49.530496,51.591944 49.3909797,51.5373693 49.2723908,51.7420245 C49.227048,51.8238865 49.0456767,51.8716394 48.9235999,51.9228032 C48.5120268,52.0831164 48.0899898,52.2297859 47.6853925,52.396921 C47.573678,52.4495404 47.4758234,52.5265629 47.399384,52.6220417 C47.217124,52.8637291 46.9622908,53.0437791 46.6704112,53.1370905 C46.5971651,53.1609669 46.5448465,53.2360072 46.4925278,53.2939928 C46.2748796,53.5526621 46.0419551,53.7986679 45.7949462,54.0307514 C45.6246237,54.1210267 45.4369425,54.1756236 45.2438567,54.1910646 C45.1158425,54.211336 44.9863803,54.2216013 44.8566988,54.2217629 C44.9194812,54.344556 44.964824,54.4434726 45.0485338,54.6140186 C44.8846021,54.5662657 44.7590374,54.556033 44.7241583,54.5082801 C44.6441042,54.4001294 44.4931457,54.3691279 44.3753675,54.4366508 C44.1312139,54.5355674 43.897524,54.6515387 43.6777858,54.7777427 C43.367362,54.9278232 43.0534502,55.0779036 42.7534901,55.2382168 C42.6296175,55.2932958 42.5208482,55.3762866 42.4360905,55.4803921 C42.3296543,55.6743869 42.1302304,55.8026908 41.9059284,55.8214841 C41.7106055,55.8521823 41.4141333,55.9033461 41.3234477,56.1421105 C41.2676412,56.2819582 41.0862699,56.3979294 40.9746569,56.5241335 L40.9048987,56.4934352 C40.9048987,56.4354496 40.9362899,56.3774639 40.9676811,56.2683145 L40.4096157,56.3808748 L40.4096157,56.4286277 L40.5944749,56.4695587 C40.55262,56.4934352 40.5316925,56.5139007 40.5072772,56.5139007 C40.1584863,56.5343662 39.827135,56.544599 39.48532,56.5752972 C39.3118299,56.5764276 39.1401626,56.6100032 38.9795733,56.6742139 C38.7515075,56.7967927 38.4751784,56.7967927 38.2471126,56.6742139 C38.2471126,56.6401047 38.2750158,56.5889409 38.2889675,56.5343662 C38.0733119,56.7319741 37.7716447,56.812431 37.4832606,56.7492541 C37.4832606,56.7253777 37.4832606,56.7049122 37.4832606,56.6810358 L37.887858,56.6537484 C37.8425152,56.544599 37.8041482,56.4490932 37.7657812,56.3501766 L38.2854796,56.2410271 C38.1563702,56.0817677 37.9506599,56.0012998 37.7448538,56.0295501 C37.4050733,56.0599681 37.0769449,56.1661521 36.785679,56.3399438 C36.593844,56.4354496 36.4020091,56.4797915 36.3043476,56.2683145 L35.9555568,56.5241335 C35.9555568,56.2785473 35.9555568,56.0841249 35.5753748,56.0329611 L36.0497303,55.6065961 C35.8997503,55.5315559 35.9764842,55.2348059 35.5056166,55.3030243 C35.2978723,55.3355329 35.0850531,55.3143677 34.8882569,55.2416278 C34.7522284,55.1768203 34.6754944,55.0506163 34.539466,54.975576 C34.4533655,54.9329825 34.3558948,54.9174932 34.2604334,54.9312341 C34.0581347,54.9721651 33.8697876,55.0472054 33.6709768,55.0881364 C33.5628517,55.1120128 33.3745046,55.1324783 33.3466014,55.0881364 C33.2698674,54.9926306 33.1896455,54.8459611 33.2419641,54.7470444 C33.360553,54.5628548 33.2419641,54.5287456 33.0605929,54.5048692 C32.8792217,54.4809927 32.7571449,54.47076 32.5792615,54.4502945 C32.6036769,54.3309123 32.6246044,54.2251738 32.6490197,54.1092025 L32.1014181,54.0341623 L32.0804907,53.9727657 C32.2862772,53.9079583 32.4641606,53.8499726 32.3141805,53.6589612 C32.2793014,53.6146192 32.4292815,53.5020589 32.4188178,53.4304296 C32.3831635,53.3266642 32.3314025,53.2288785 32.2653498,53.1405014 C32.1700006,53.1695357 32.0767756,53.204863 31.9863171,53.2462399 C31.8433129,53.3212801 31.6375263,53.4986479 31.5852077,53.4815933 C31.4123455,53.3727256 31.2521199,53.2457733 31.1073642,53.1029813 L31.536377,52.8812715 L31.5119616,52.819875 L30.9190172,52.860806 L31.5677681,52.226375 C31.0934126,51.9125704 31.0899247,51.8238865 31.4910341,51.6601624 C31.4177881,51.5407802 31.2503685,51.4077543 31.2887355,51.3190704 C31.459643,50.8858837 30.9887753,50.7289814 30.7306701,50.4833952 C30.7872833,50.3891495 30.7986202,50.2753164 30.7616666,50.1721591 C30.724713,50.0690018 30.6432134,49.9869731 30.5388352,49.9478808 C30.3888551,49.8660188 30.28073,49.7329929 30.4237342,49.5658579 C30.4595324,49.5122886 30.4865963,49.4536021 30.5039561,49.391901 C30.5667384,49.265697 30.5039561,49.1770131 30.3330486,49.1940677 C30.161871,49.2038523 29.9930047,49.1516392 29.8586931,49.0473981 C29.6722364,48.9744533 29.479686,48.9173926 29.2831882,48.8768522 C29.1999569,48.8551785 29.1263837,48.8072124 29.0739137,48.7404154 C28.9016907,48.4269593 28.6299265,48.1767565 28.299598,48.0275332 C28.1828732,47.9534558 28.076223,47.8652053 27.9821984,47.7648924 C27.9508072,47.8365217 27.9229039,47.8706309 27.9263918,47.9013292 C27.9508072,48.3004068 27.6020164,48.4641309 27.159052,48.5630476 C26.9672171,48.6039786 26.8102612,48.6585533 26.9009468,48.8461539 C26.5068132,48.9825907 26.0743125,49.05422 25.8824776,49.4021337 L26.1161674,49.473763 L25.5441505,49.9137717 C25.5092714,49.941059 25.4778802,49.985401 25.4325374,49.9956337 C25.0105005,50.0809067 24.8640083,50.3981222 24.5535845,50.5789009 C24.3915043,50.6655283 24.2414615,50.7721374 24.1071322,50.8961164 C23.9745917,51.0291423 23.7409019,51.0939498 23.6885832,51.3054268 C23.6571921,51.4282199 23.3676957,51.5305474 23.1863244,51.6465187 C22.7782392,51.8648176 22.366666,52.0797055 21.9411412,52.3014152 C22.0736817,52.478783 21.9202137,52.5811106 21.7004755,52.6663836 C21.5574712,52.7243692 21.3900516,52.7653003 21.3935396,52.9290244 C21.3935396,52.9699554 21.3202935,53.0211192 21.2644869,53.0552284 C20.807571,53.328102 20.3436792,53.5975646 19.8902511,53.87726 C19.8323642,53.921672 19.7947569,53.986645 19.7856138,54.0580387 C19.7786194,54.1374799 19.7786194,54.2173619 19.7856138,54.2968031 L19.0008344,54.6003749 L19.0322256,54.6583605 L18.7427292,54.5355674 L18.2648858,54.8289065 C17.9370224,55.019918 17.916095,55.1086019 18.2648858,55.2962025 L17.3022231,55.8999352 C16.7860127,56.2410271 16.0709915,56.3365329 15.6350029,56.7594869 C15.5750531,56.7941434 15.5104991,56.8205429 15.443168,56.837938 C15.2465406,56.9066127 15.0618565,57.0043938 14.8955664,57.1278662 C14.6259784,57.2701162 14.3352924,57.3702436 14.034053,57.4246162 L13.4899393,57.601984 C13.4515723,57.601984 13.4097174,57.6531478 13.3818141,57.6463259 C12.9423377,57.5542311 12.5970348,57.7929955 12.206389,57.8646248 C12.0389694,57.8953231 11.8575982,57.8850903 11.6832028,57.9021449 C11.5088074,57.9191995 11.2716296,57.9669524 11.065843,57.9942397 C10.9639984,58.0077641 10.8607517,58.0077641 10.7589071,57.9942397 C10.3966823,57.9276014 10.0223309,57.9692024 9.68463132,58.1136219 C9.49560066,58.1527142 9.29896027,58.1360957 9.11959017,58.065869 C8.72241273,57.9103459 8.28458039,57.8840339 7.87091899,57.9908288 C7.84428137,57.9940749 7.81733472,57.9940749 7.7906971,57.9908288 L7.7906971,58.0317598 L6.29787234,57.9464869 C15.857837,71.9194138 34.0050817,77.6045424 50.0879794,71.6649545 C66.170877,65.7253666 75.9451763,49.7285102 73.6737974,33.0638298 C73.486826,33.1313512 73.3234636,33.2496894 73.2029298,33.4049217 Z M55.4773797,46.936039 C55.1774196,46.8064241 55.198347,46.6324672 55.3343754,46.5267287 C55.5351299,46.392488 55.7599532,46.2964436 55.997078,46.2436224 L55.4773797,46.936039 Z"
          id="Shape"></path>
      </g>
    </g>
  </g>
</svg>